<svg width="41" height="51" viewBox="0 0 41 51" fill="none" xmlns="http://www.w3.org/2000/svg">
<path d="M37.3862 12.5314C37.3418 12.0033 36.899 11.5986 36.3713 11.6038H28.6582V8.6671C28.6582 3.88028 24.7957 0 20.0317 0C15.2674 0 11.4053 3.88028 11.4053 8.6671V11.6038H3.69219C3.16691 11.6058 2.72845 12.0065 2.67731 12.5314L0.0184012 43.2439C-0.102512 44.6678 0.376384 46.0778 1.33933 47.1305C2.30188 48.1829 3.65968 48.7815 5.08249 48.7803H34.9909C36.4137 48.7815 37.7715 48.1829 38.7341 47.1305C39.697 46.0778 40.1763 44.6678 40.0554 43.2439L37.3862 12.5314ZM13.435 8.6671C13.435 5.00668 16.3885 2.03932 20.0317 2.03932C23.675 2.03932 26.6285 5.00668 26.6285 8.6671V11.6038H13.435V8.6671ZM37.234 45.752C36.6599 46.3869 35.8444 46.7466 34.9909 46.741H5.07218C4.21865 46.7414 3.40437 46.3817 2.82716 45.75C2.25034 45.1179 1.96372 44.2715 2.03785 43.4172L4.61549 13.6431H11.4053V20.0056C9.77314 20.5103 8.7539 22.1381 9.00802 23.8349C9.26174 25.5313 10.7127 26.786 12.4202 26.786C14.1276 26.786 15.5782 25.5313 15.8323 23.8349C16.086 22.1381 15.0668 20.5103 13.435 20.0056V13.6328H26.6285V20.0056C24.9963 20.5103 23.9771 22.1381 24.2312 23.8349C24.4849 25.5313 25.9359 26.786 27.6433 26.786C29.3508 26.786 30.8014 25.5313 31.0555 23.8349C31.3092 22.1381 30.29 20.5103 28.6582 20.0056V13.6328H35.4377L38.0153 43.4068C38.0986 44.2647 37.8143 45.1175 37.234 45.752V45.752ZM12.2679 21.9024C12.369 21.9159 12.4713 21.9159 12.5724 21.9024C13.3228 21.9836 13.8794 22.6408 13.839 23.398C13.7982 24.1556 13.175 24.749 12.4202 24.749C11.6649 24.749 11.0417 24.1556 11.0013 23.398C10.9609 22.6408 11.5171 21.9836 12.2679 21.9024ZM27.4911 21.9024C27.5922 21.9159 27.6945 21.9159 27.7956 21.9024C28.546 21.9836 29.1026 22.6408 29.0622 23.398C29.0214 24.1556 28.3982 24.749 27.6433 24.749C26.8881 24.749 26.2649 24.1556 26.2245 23.398C26.1841 22.6408 26.7403 21.9836 27.4911 21.9024V21.9024Z" fill="black"/>
<path d="M20.3712 41.8577C19.5312 41.8577 18.7752 41.7137 18.1032 41.4257C17.4312 41.1257 16.9032 40.7057 16.5192 40.1657C16.1352 39.6257 15.9432 38.9957 15.9432 38.2757H18.1392C18.1872 38.8157 18.3972 39.2597 18.7692 39.6077C19.1532 39.9557 19.6872 40.1297 20.3712 40.1297C21.0792 40.1297 21.6312 39.9617 22.0272 39.6257C22.4232 39.2777 22.6212 38.8337 22.6212 38.2937C22.6212 37.8737 22.4952 37.5317 22.2432 37.2677C22.0032 37.0037 21.6972 36.7997 21.3252 36.6557C20.9652 36.5117 20.4612 36.3557 19.8132 36.1877C18.9972 35.9717 18.3312 35.7557 17.8152 35.5397C17.3112 35.3117 16.8792 34.9637 16.5192 34.4957C16.1592 34.0277 15.9792 33.4037 15.9792 32.6237C15.9792 31.9037 16.1592 31.2737 16.5192 30.7337C16.8792 30.1937 17.3832 29.7797 18.0312 29.4917C18.6792 29.2037 19.4292 29.0597 20.2812 29.0597C21.4932 29.0597 22.4832 29.3657 23.2512 29.9777C24.0312 30.5777 24.4632 31.4057 24.5472 32.4617H22.2792C22.2432 32.0057 22.0272 31.6157 21.6312 31.2917C21.2352 30.9677 20.7132 30.8057 20.0652 30.8057C19.4772 30.8057 18.9972 30.9557 18.6252 31.2557C18.2532 31.5557 18.0672 31.9877 18.0672 32.5517C18.0672 32.9357 18.1812 33.2537 18.4092 33.5057C18.6492 33.7457 18.9492 33.9377 19.3092 34.0817C19.6692 34.2257 20.1612 34.3817 20.7852 34.5497C21.6132 34.7777 22.2852 35.0057 22.8012 35.2337C23.3292 35.4617 23.7732 35.8157 24.1332 36.2957C24.5052 36.7637 24.6912 37.3937 24.6912 38.1857C24.6912 38.8217 24.5172 39.4217 24.1692 39.9857C23.8332 40.5497 23.3352 41.0057 22.6752 41.3537C22.0272 41.6897 21.2592 41.8577 20.3712 41.8577Z" fill="#29A867"/>
</svg>
